<?xml version="1.0" encoding="UTF-8"?>
<svg id="basic_lines" xmlns="http://www.w3.org/2000/svg" viewBox="0 0 520 192">
  <defs>
    <style>
      .cls-1 {
        fill: #b2e375;
      }

      .cls-1, .cls-2 {
        stroke-width: 0px;
      }

      .cls-2 {
        fill: #0bbcdd;
      }
    </style>
  </defs>
  <g>
    <path class="cls-1" d="m220.81,153.88c-2.1,0-4.55-1.31-7.36-3.93-2.81-2.62-5.74-6.05-8.79-10.3-3.05-4.24-6.08-8.89-9.08-13.94-3-5.05-5.77-10.1-8.29-15.16-2.53-5.05-4.65-9.58-6.36-13.58-2.67,9.34-5.24,18.52-7.72,27.53-2.48,9.01-4.82,17.18-7.01,24.52-2.38,0-4.55-.67-6.51-2-1.96-1.34-2.93-3.05-2.93-5.15,0-1.05.24-2.31.71-3.79.48-1.48.91-2.83,1.29-4.08,2.38-7.53,4.72-14.63,7.01-21.31,2.29-6.67,4.53-13.11,6.72-19.31,2.19-6.2,4.46-12.34,6.79-18.45,2.33-6.1,4.79-12.25,7.36-18.45,2.57-6.2,5.34-12.63,8.29-19.3-4,.67-7.49,1.64-10.44,2.93-2.96,1.29-5.34,2.48-7.15,3.58-1.81,1.1-3.05,1.64-3.72,1.64-.38,0-.93-.21-1.64-.64s-1.36-.95-1.93-1.57c-.57-.62-.86-1.17-.86-1.64,2.48-1.05,5.39-2.19,8.72-3.43,3.34-1.24,7.01-2.29,11.01-3.15,4-.86,8.15-1.29,12.44-1.29s8.27.5,12.51,1.5c4.24,1,8.15,2.57,11.73,4.72,3.58,2.14,6.46,4.91,8.65,8.29,2.19,3.38,3.29,7.46,3.29,12.23s-1.07,8.7-3.22,12.08c-2.14,3.38-4.96,6.22-8.44,8.51-3.48,2.29-7.27,4.12-11.37,5.5-4.1,1.38-8.15,2.43-12.15,3.15s-7.63,1.19-10.87,1.43c-3.24.24-5.67.36-7.29.36,2.95,5.05,5.77,9.96,8.44,14.73,2.67,4.77,5.58,9.51,8.72,14.23,3.15,4.72,6.86,9.46,11.15,14.23,4.29,4.77,9.49,9.63,15.59,14.59-.57,1.24-1.6,2.33-3.07,3.29-1.48.95-2.88,1.43-4.22,1.43Zm-37.61-64.78c5.15-.29,10.37-1.12,15.66-2.5,5.29-1.38,10.13-3.34,14.51-5.86,4.38-2.52,7.91-5.72,10.58-9.58,2.67-3.86,4-8.46,4-13.8s-1.24-9.37-3.72-12.37c-2.48-3-5.67-5.15-9.58-6.43-3.91-1.29-8.01-1.93-12.3-1.93-3.24,6.58-6.48,14.47-9.72,23.67-3.24,9.2-6.39,18.8-9.44,28.81Z"/>
    <path class="cls-1" d="m243.83,143.29c-2.96,0-5.46-.98-7.51-2.93-2.05-1.96-3.07-4.93-3.07-8.94,0-3.43.76-7.12,2.29-11.08,1.52-3.96,3.62-7.87,6.29-11.73,2.67-3.86,5.7-7.39,9.08-10.58,3.38-3.19,6.96-5.74,10.73-7.65,3.76-1.91,7.51-2.86,11.22-2.86s6.82.98,9.3,2.93c2.48,1.96,3.72,4.55,3.72,7.79,0,2.38-.64,4-1.93,4.86-1.29.86-2.98,1.29-5.08,1.29.19-.76.36-1.6.5-2.5.14-.91.21-1.74.21-2.5,0-2.19-.53-4.08-1.57-5.65-1.05-1.57-2.86-2.36-5.43-2.36s-5.39.93-8.15,2.79c-2.77,1.86-5.43,4.34-8.01,7.44-2.57,3.1-4.86,6.46-6.86,10.08-2,3.62-3.58,7.2-4.72,10.72-1.14,3.53-1.72,6.67-1.72,9.44,0,3.72,1.29,5.58,3.86,5.58,2.19,0,4.58-1.02,7.15-3.07,2.57-2.05,5.22-4.67,7.94-7.87,2.72-3.19,5.31-6.51,7.79-9.94,2.48-3.43,4.67-6.58,6.58-9.44.38-.57.62-.86.71-.86.57.1,1.31.29,2.22.57.91.29,1.69.67,2.36,1.14.67.48,1,1.1,1,1.86,0,.86-.43,2.03-1.29,3.5-.86,1.48-1.81,3.17-2.86,5.08-1.05,1.91-2,3.84-2.86,5.79-.86,1.96-1.29,3.79-1.29,5.51,0,1.43.38,2.84,1.14,4.22.76,1.38,2,2.07,3.72,2.07,2.57,0,5.96-1.88,10.15-5.65,4.19-3.76,8.44-9.41,12.73-16.95l1.43,1.43c-2,5.15-4.58,9.68-7.72,13.58-3.15,3.91-6.51,6.96-10.08,9.15-3.58,2.19-7.08,3.29-10.51,3.29s-6.13-1.05-7.79-3.15c-1.67-2.1-2.5-4.38-2.5-6.86,0-.57.05-1.21.14-1.93.09-.72.19-1.45.29-2.22-4.1,5.53-7.84,9.68-11.23,12.44-3.38,2.76-6.84,4.15-10.37,4.15Z"/>
    <path class="cls-1" d="m297.45,176.61c-.95,0-2.05-.31-3.29-.93-1.24-.62-2.31-1.84-3.22-3.65-.91-1.81-1.36-4.48-1.36-8.01,0-4.2.71-9.65,2.14-16.37,1.43-6.72,3.38-14.13,5.86-22.24,2.48-8.1,5.34-16.42,8.58-24.95,3.24-8.53,6.74-16.78,10.51-24.74,3.77-7.96,7.63-15.11,11.58-21.45,3.96-6.34,7.84-11.37,11.66-15.09,3.81-3.72,7.44-5.58,10.87-5.58,2,0,3.31.62,3.93,1.86.62,1.24.93,2.72.93,4.43,0,4.1-1.12,8.58-3.36,13.44-2.24,4.86-5.22,9.75-8.94,14.66-3.72,4.91-7.82,9.58-12.3,14.01-4.48,4.43-9.01,8.22-13.58,11.37-.48,1.14-.93,2.31-1.36,3.5-.43,1.19-.88,2.41-1.36,3.65,1.05.19,1.88.74,2.5,1.64.62.91.98,1.88,1.07,2.93.67,4.29,1.38,8.13,2.15,11.51.76,3.39,1.93,6.03,3.5,7.94,1.57,1.91,3.84,2.86,6.79,2.86,3.34,0,6.15-1.22,8.44-3.65,2.29-2.43,4.77-5.89,7.44-10.37l2.14,1.43c-2.38,5.72-5.41,9.87-9.08,12.44-3.67,2.57-6.89,3.86-9.65,3.86-1.72,0-3.5-.43-5.36-1.29-1.86-.86-3.6-2-5.22-3.43,0,6.01-.64,11.96-1.93,17.88-1.29,5.91-2.98,11.3-5.08,16.16-2.1,4.86-4.43,8.77-7.01,11.73-2.57,2.95-5.24,4.43-8.01,4.43Zm3.72-6.86c1.05,0,2.24-.95,3.57-2.86,1.33-1.91,2.65-4.41,3.93-7.51,1.29-3.1,2.45-6.51,3.5-10.22,1.05-3.72,1.91-7.44,2.57-11.15.67-3.72,1-7.05,1-10.01s-.38-5.65-1.14-8.08c-.76-2.43-2-5.31-3.72-8.65-2.38,7.15-4.53,14.06-6.43,20.74-1.91,6.67-3.39,12.68-4.43,18.02-1.05,5.34-1.57,9.63-1.57,12.87,0,4.58.91,6.86,2.72,6.86Zm18.59-82.22c6.2-5.72,11.56-11.46,16.09-17.23,4.53-5.77,8.03-10.92,10.51-15.44,2.48-4.53,3.72-7.74,3.72-9.65,0-1.33-.67-2-2-2-2.48,0-5.29,2.03-8.44,6.08-3.15,4.05-6.44,9.42-9.87,16.09-3.43,6.67-6.77,14.06-10.01,22.17Z"/>
    <path class="cls-1" d="m350.79,143.29c-2.96,0-5.46-.98-7.51-2.93-2.05-1.96-3.07-4.93-3.07-8.94,0-3.43.76-7.12,2.29-11.08,1.52-3.96,3.62-7.87,6.29-11.73,2.67-3.86,5.7-7.39,9.08-10.58,3.38-3.19,6.96-5.74,10.73-7.65,3.76-1.91,7.51-2.86,11.22-2.86s6.82.98,9.3,2.93c2.48,1.96,3.72,4.55,3.72,7.79,0,2.38-.64,4-1.93,4.86-1.29.86-2.98,1.29-5.08,1.29.19-.76.36-1.6.5-2.5.14-.91.21-1.74.21-2.5,0-2.19-.53-4.08-1.57-5.65-1.05-1.57-2.86-2.36-5.43-2.36s-5.39.93-8.15,2.79c-2.77,1.86-5.43,4.34-8.01,7.44-2.57,3.1-4.86,6.46-6.86,10.08-2,3.62-3.58,7.2-4.72,10.72-1.14,3.53-1.72,6.67-1.72,9.44,0,3.72,1.29,5.58,3.86,5.58,2.19,0,4.58-1.02,7.15-3.07,2.57-2.05,5.22-4.67,7.94-7.87,2.72-3.19,5.31-6.51,7.79-9.94,2.48-3.43,4.67-6.58,6.58-9.44.38-.57.62-.86.71-.86.57.1,1.31.29,2.22.57.91.29,1.69.67,2.36,1.14.67.48,1,1.1,1,1.86,0,.86-.43,2.03-1.29,3.5-.86,1.48-1.81,3.17-2.86,5.08-1.05,1.91-2,3.84-2.86,5.79-.86,1.96-1.29,3.79-1.29,5.51,0,1.43.38,2.84,1.14,4.22.76,1.38,2,2.07,3.72,2.07,2.57,0,5.96-1.88,10.15-5.65,4.19-3.76,8.44-9.41,12.73-16.95l1.43,1.43c-2,5.15-4.58,9.68-7.72,13.58-3.15,3.91-6.51,6.96-10.08,9.15-3.58,2.19-7.08,3.29-10.51,3.29s-6.13-1.05-7.79-3.15c-1.67-2.1-2.5-4.38-2.5-6.86,0-.57.05-1.21.14-1.93.09-.72.19-1.45.29-2.22-4.1,5.53-7.84,9.68-11.23,12.44-3.38,2.76-6.84,4.15-10.37,4.15Z"/>
    <path class="cls-1" d="m421.72,142.86c-5.82,0-10.18-1.6-13.08-4.79-2.91-3.19-4.36-7.12-4.36-11.8,0-4.29,1.07-8.82,3.22-13.58,2.14-4.77,5-9.25,8.58-13.44,3.57-4.19,7.51-7.6,11.8-10.22,4.29-2.62,8.53-3.93,12.73-3.93,2.19,0,4.22.57,6.08,1.72,1.86,1.14,2.79,3.48,2.79,7.01s-1.07,7.03-3.22,10.22c-2.15,3.2-4.96,6.03-8.44,8.51-3.48,2.48-7.29,4.5-11.44,6.08-4.15,1.57-8.27,2.55-12.37,2.93-.19.95-.33,1.86-.43,2.72-.1.86-.14,1.67-.14,2.43,0,1.43.17,2.86.5,4.29.33,1.43.93,2.74,1.79,3.93.86,1.19,2.02,2.12,3.5,2.79,1.48.67,3.31,1,5.51,1,4.1,0,8.15-1.17,12.15-3.5,4-2.33,7.72-5.41,11.15-9.22,3.43-3.81,6.34-8.01,8.72-12.58l1.72,1.29c-2.57,5.72-5.84,10.68-9.8,14.87-3.96,4.2-8.25,7.46-12.87,9.79-4.62,2.33-9.32,3.5-14.08,3.5Zm-7.01-24.02c2.57-.86,5.48-2.12,8.72-3.79,3.24-1.67,6.36-3.65,9.37-5.93s5.48-4.81,7.44-7.58c1.95-2.76,2.93-5.67,2.93-8.72,0-1.05-.19-1.86-.57-2.43-.38-.57-1.19-.86-2.43-.86-2.29,0-4.72.88-7.29,2.65-2.57,1.76-5.05,4.08-7.44,6.94-2.38,2.86-4.53,6.01-6.44,9.44-1.91,3.43-3.34,6.86-4.29,10.3Z"/>
    <path class="cls-1" d="m465.76,140.86c-4.1,0-7.03-1.41-8.79-4.22-1.76-2.81-2.65-6.31-2.65-10.51,0-4.58.86-10.01,2.57-16.3s3.98-12.92,6.79-19.88c2.81-6.96,5.88-13.75,9.22-20.38,3.34-6.62,6.67-12.66,10.01-18.09,3.34-5.43,6.41-9.77,9.22-13.01,2.81-3.24,5.03-4.86,6.65-4.86,1.05,0,1.91.6,2.57,1.79.67,1.19,1.19,2.62,1.57,4.29.38,1.67.57,3.17.57,4.5,0,2.57-.64,5.93-1.93,10.08-1.29,4.15-3.1,8.77-5.43,13.87-2.34,5.1-5.1,10.25-8.29,15.44-3.2,5.2-6.67,10.18-10.44,14.94-3.77,4.77-7.75,8.87-11.94,12.3-.57,2.57-1.03,5.08-1.36,7.51-.33,2.43-.5,4.74-.5,6.94,0,3.72.52,6.48,1.57,8.29,1.05,1.81,2.62,2.72,4.72,2.72,2.57,0,5.12-1.14,7.65-3.43,2.53-2.29,4.91-5.17,7.15-8.65,2.24-3.48,4.17-7.08,5.79-10.8l2.14,1.14c-3.81,8.1-7.96,14.51-12.44,19.23-4.48,4.72-9.29,7.08-14.44,7.08Zm1-34.89c3.34-3.34,6.58-7.17,9.72-11.51,3.15-4.34,6.08-8.84,8.79-13.51,2.72-4.67,5.12-9.2,7.22-13.58,2.1-4.38,3.72-8.32,4.86-11.8,1.14-3.48,1.72-6.17,1.72-8.08,0-.95-.12-1.57-.36-1.86-.24-.29-.45-.43-.64-.43-.76,0-2.07,1.21-3.93,3.65-1.86,2.43-4.03,5.7-6.51,9.79-2.48,4.1-5,8.77-7.58,14.01-2.57,5.24-5.03,10.72-7.36,16.44-2.34,5.72-4.31,11.35-5.93,16.87Zm25.88,8.58c2.27-3.29,9.84-5.16,6.84-8.16s-5,1-5,1c0,0,1-5-3-4s.03,7.04-.98,10.02"/>
  </g>
  <g id="Logo">
    <g>
      <path class="cls-2" d="m92.33,144.55s-.06,0-.09,0c-.64,0-1.53-.34-1.97-.78-2.22-2.14-5.81-5.76-7.49-8.38-.24.05-.5.06-.75.02-8.35-1.3-11.48-5.53-12.61-9-.08.02-.16.03-.24.03-.65.05-1.27-.14-1.75-.57-8.01-7.03-11.64-14.05-10.79-20.85.15-1.19.43-2.36.84-3.51-4.73-2.45-6.17-15.92-6.07-22.3.15-9.59,2.58-16.73,6.88-20.99-9.47-13.45-28.55-28.46-29.19-42.84-9.56,16.38-15.79,38.04-10.93,56.94-5.7,7.81,5.96,35.71,20.07,37.81-8.22,4.34-3.85,15.75,4.45,12.5-8.35,2.66,11.1,28.3,13.12,20.44-1.71,10.28,10.83,9.88,15.39,17.1,24.41,23.07,16.17,19.61,19.26-8.5,1.24-2.36,1.96-4.84,2.28-7.24-.15.03-.28.1-.43.11Z"/>
      <path class="cls-2" d="m155.87,15.39c-.65,14.48-19.97,29.6-29.38,43.12,3.19,3.12,5.48,8.88,7.21,18.11.05.29.05.6,0,.89-.14.68-.45,1.25-.9,1.66.12.19.24.39.35.59,3.22,3.45,3.52,9.95,2.11,14.74-1.06,3.59-2.99,6.2-5.44,7.46.59,1.34.97,2.78,1.08,4.32.47,6.25-3.56,12.73-12.35,19.81-8.44,8.43-12.38,10.93-15.43,9.75-.36-.14-.69-.32-.97-.54-.58,1.08-1.44,2.16-2.65,3.19-.31.26-.69.44-1.09.52,0,.11-.97,1.3-1.55,2-1.66,2.01-2.85,3.46-4.53,3.55-.03,0-.06,0-.09,0,0,0,0,0,0,0,.33,2.37,1.03,4.81,2.26,7.13,3.09,28.12-5.14,31.57,19.26,8.5,4.57-7.22,17.1-6.82,15.39-17.1,2.02,7.86,21.47-17.79,13.12-20.44,8.3,3.25,12.67-8.16,4.45-12.5,14.11-2.1,25.77-30,20.07-37.81,4.86-18.91-1.36-40.56-10.93-56.94Z"/>
    </g>
    <path class="cls-1" d="m131.24,81.13c-2.72-5.57-12.7-6.53-15.82-10.24,6.73-3.95,15.3,9.55,16,6.15-5.76-30.78-16.67-17.02-35.2-8.91-.03,1.22-.08,2.49-.28,3.77,7.84.12,14.9-4.93,21.97-7.87-6.14,3.74-11.95,8.45-18.94,10.55,10.42.76,23.36,1.01,29.4,11.05-7.69-10.46-21.89-7.74-33.15-8.29-.3,3.12.05,6.18.2,9.31,9.9,3.9,22.34,8.39,25.75,19.37-4.8-10.36-14.96-12.79-25.58-15.91.21,3.55-.13,7.11-1.21,10.51,6.82,5.17,12.81,12.26,14.43,20.82-2.47-7.68-8.63-13.53-15.38-17.61-3.25,10.69-1.27,22.14-1.16,33.15-.62-10.31-2.72-20.84-.9-31.11-6.89,1.55-12.53,6.97-14.5,13.73,1.16-8.16,7.45-14.99,15.33-17.26,1.17-4.11,1.75-8.35,1.19-12.6-10.54.23-23.1,3.62-27.5,14.19,3.54-11.38,16.34-16.02,27.17-17.4-.44-3.84-.76-7.53-.58-11.59-12.4-2.4-27.55.18-34.24,12.01,5.13-11.16,18.1-15.63,29.72-15.45-7.69-1.2-13.23-8.9-21.17-7.84,8.91-1.67,16.76,6.09,25.95,6.08.04-.55.08-1.09.12-1.63-7.2-.61-16.38-12.32-23.73-12.09-27.5.89-10.4,66.75-6.84,34.84,3.3-6.01,15.1-12.9,18.37-12.9,6.6,3.35.04,6.44-5.53,9.95-16.75,8.59-23.35,21.08-6.12,36.23,4.05-5.23-.23-19.12,6.33-24.72,1.79-1.98,9.95-5.88,8.82-.06-12.69,11.09-20.73,30.82-1.73,33.76-.87-2.5-1.18-23.73,4.6-19.22-.18,7.24-4.85,12.64-2.79,19.25.88,2.37,7,8.3,7.7,8.97,1.06,1.04,4.53-5.11,6.1-5.4,8.84-7.52-5.93-16.61-1.17-24.45,11.95,7.91-3.81,36.02,20.27,12,35.66-28.75-23.98-35.92-11.56-44.04,17.36,2.06,16.16,8.83,21.84,20.14,6.6-1.29,8.4-14.9,3.87-19.25Zm-63.88-10.62c1.22-1.1-1.32-1.57-1.7-2.23,2.12-.75,8.49.13,9.34.79-2.86.5-6.71,1.5-9.81,2.72.69-.41,1.4-.83,2.17-1.29Zm46.67,48.2c-2.72-7.5-10.41-14.23-13.18-20.34,12-2.46,10.06,17.11,15.17,23.97-.67-1.21-1.34-2.43-1.99-3.63Z"/>
  </g>
</svg>